<svg xmlns="http://www.w3.org/2000/svg" width="24" height="24" id="chevron-right"><g fill="none" fill-rule="evenodd"><path d="M0 0h24v24H0z"></path><g fill="#E8DCC7" transform="translate(1 1)"><circle cx="11" cy="11" r="9" fill-opacity=".24"></circle><path fill-rule="nonzero" d="M8.293 7.707a1 1 0 0 1 1.414-1.414l4 4a1 1 0 0 1 0 1.414l-4 4a1 1 0 1 1-1.414-1.414L11.586 11 8.293 7.707ZM11 22C4.925 22 0 17.075 0 11S4.925 0 11 0s11 4.925 11 11-4.925 11-11 11Zm0-2a9 9 0 1 0 0-18 9 9 0 0 0 0 18Z"></path></g></g></svg>